<svg width="232" height="40" viewBox="0 0 232 40" fill="none" xmlns="http://www.w3.org/2000/svg">
<g id="Group 1310">
<path id="Vector" d="M97.9945 24.0358C97.5432 24.9252 96.9735 25.7403 96.3033 26.4555C95.6471 27.1791 94.9039 27.8066 94.0931 28.3216C93.268 28.8444 92.383 29.251 91.4601 29.5315C90.5035 29.8208 89.5138 29.9658 88.5196 29.9622C87.0778 29.9714 85.6503 29.657 84.3298 29.0394C83.0455 28.4534 81.8779 27.6112 80.8896 26.5581C79.901 25.5006 79.1059 24.2558 78.5449 22.8874C77.9867 21.4651 77.6992 19.9385 77.6992 18.3965C77.6992 16.8545 77.9867 15.3279 78.5449 13.9055C79.1059 12.5371 79.901 11.2923 80.8896 10.2349C81.8779 9.18169 83.0455 8.33952 84.3298 7.75356C85.6503 7.13594 87.0778 6.82153 88.5196 6.83076C89.5138 6.82712 90.5035 6.97208 91.4601 7.2614C92.383 7.54188 93.268 7.94855 94.0931 8.47129C94.9039 8.98627 95.6471 9.61378 96.3033 10.3374C96.964 11.0462 97.5328 11.8462 97.9945 12.7161L94.1507 14.3362C93.8354 13.8414 93.4748 13.3812 93.0745 12.9622C92.6624 12.5308 92.2044 12.1522 91.7099 11.8344C91.2235 11.5116 90.7003 11.2566 90.1532 11.0756C89.5926 10.8935 89.0094 10.8036 88.4235 10.809C87.5015 10.8032 86.5896 11.0132 85.752 11.4242C84.9496 11.8404 84.2212 12.4025 83.5995 13.0853C82.9801 13.7915 82.4853 14.6113 82.1388 15.505C81.7801 16.4208 81.5971 17.404 81.6007 18.3965C81.5912 19.3896 81.7744 20.374 82.1388 21.2879C82.4853 22.1817 82.9801 23.0014 83.5995 23.7077C84.21 24.4041 84.9409 24.9681 85.752 25.3687C86.5896 25.7797 87.5015 25.9897 88.4235 25.9839C89.0094 25.9893 89.5926 25.8994 90.1532 25.7173C90.7003 25.5364 91.2235 25.2814 91.7099 24.9586C92.2051 24.6337 92.663 24.2483 93.0745 23.8102C93.4751 23.3841 93.8356 22.917 94.1507 22.4157L97.9945 24.0358Z" fill="#FF7D7D"/>
<path id="Vector_2" d="M99.5132 29.5313L110.161 7.24072H110.564L121.288 29.5313H116.945L115.311 26.0247H105.452L103.857 29.5313H99.5132ZM107.393 22.2925H113.37L110.391 15.5664L107.393 22.2925Z" fill="#FF7D7D"/>
<path id="Vector_3" d="M134.492 7.19998C135.491 7.1909 136.48 7.40756 137.394 7.83568C139.116 8.63463 140.489 10.1002 141.238 11.937C141.632 12.9151 141.835 13.9688 141.834 15.0335C141.841 16.0776 141.665 17.1141 141.315 18.089C141.027 19.0646 140.541 19.9608 139.893 20.7138C139.169 21.4552 138.303 22.0217 137.356 22.3748C136.224 22.7874 135.034 22.9886 133.839 22.9695H129.168V29.5316H125.171V7.19998H134.492ZM134.492 19.0323C135.019 19.0433 135.542 18.9386 136.03 18.7247C136.434 18.5189 136.789 18.2173 137.067 17.8429C137.343 17.4701 137.552 17.046 137.682 16.592C137.815 16.1197 137.88 15.6289 137.875 15.136C137.876 14.6184 137.791 14.1047 137.625 13.6185C137.459 13.1323 137.204 12.6861 136.875 12.3061C136.541 11.9047 136.136 11.5773 135.684 11.3423C135.161 11.1051 134.599 10.9864 134.031 10.9937H129.168V19.0323H134.492Z" fill="#FF7D7D"/>
<path id="Vector_4" d="M155.306 7.19999C156.298 7.1907 157.281 7.40743 158.189 7.8357C159.07 8.23028 159.873 8.80105 160.553 9.51723C161.227 10.2445 161.768 11.1 162.148 12.0395C162.536 13.0189 162.732 14.0727 162.725 15.136C162.732 16.1802 162.556 17.2166 162.206 18.1915C161.884 19.1388 161.373 19.9997 160.707 20.7138C159.982 21.4552 159.117 22.0217 158.17 22.3748C157.032 22.7893 155.836 22.9905 154.633 22.9695H149.982V29.5316H145.985V7.19999H155.306ZM155.306 19.0323C155.833 19.0433 156.356 18.9386 156.844 18.7247C157.259 18.5193 157.627 18.2182 157.92 17.8429C158.196 17.4702 158.404 17.046 158.535 16.592C158.667 16.1197 158.732 15.6289 158.727 15.136C158.728 14.6184 158.644 14.1047 158.477 13.6185C158.312 13.1323 158.057 12.6862 157.728 12.3061C157.388 11.9026 156.976 11.575 156.517 11.3423C155.996 11.1009 155.432 10.982 154.864 10.9937H149.982V19.0323H155.306Z" fill="#FF7D7D"/>
<path id="Vector_5" d="M181.274 10.9934H175.316V29.4493H171.241V10.9934H165.245V7.19971H181.274V10.9934Z" fill="#FF7D7D"/>
<path id="Vector_6" d="M194.725 29.9622C193.283 29.9714 191.855 29.657 190.535 29.0394C189.23 28.4603 188.042 27.6178 187.037 26.5581C186.048 25.5007 185.253 24.2558 184.692 22.8874C184.134 21.4579 183.847 19.9246 183.847 18.376C183.847 16.8274 184.134 15.2941 184.692 13.8645C185.248 12.4872 186.044 11.2347 187.037 10.1734C188.025 9.12021 189.193 8.27803 190.477 7.69207C191.807 7.08277 193.239 6.76855 194.686 6.76855C196.133 6.76855 197.565 7.08277 198.895 7.69207C201.494 8.86388 203.563 11.0709 204.661 13.844C205.232 15.2701 205.526 16.8048 205.526 18.3555C205.526 19.9062 205.232 21.4409 204.661 22.8669C204.132 24.2352 203.37 25.4868 202.412 26.5581C201.417 27.6115 200.243 28.4535 198.953 29.0394C197.62 29.6609 196.179 29.9753 194.725 29.9622ZM194.725 10.7681C193.8 10.7588 192.886 10.9763 192.053 11.4038C191.242 11.8043 190.511 12.3684 189.901 13.0648C189.265 13.7612 188.762 14.5831 188.421 15.4846C187.703 17.3362 187.703 19.4158 188.421 21.2674C188.772 22.1636 189.273 22.9837 189.901 23.6872C190.51 24.3898 191.241 24.9607 192.053 25.3687C192.893 25.7742 193.803 25.984 194.725 25.984C195.646 25.984 196.557 25.7742 197.396 25.3687C198.214 24.9608 198.951 24.3901 199.568 23.6872C200.185 22.9788 200.679 22.1596 201.029 21.2674C201.746 19.4158 201.746 17.3362 201.029 15.4846C200.687 14.5882 200.191 13.7676 199.568 13.0648C198.95 12.3681 198.213 11.8043 197.396 11.4038C196.564 10.9742 195.649 10.7566 194.725 10.7681Z" fill="#FF7D7D"/>
<path id="Vector_7" d="M220.326 29.9626C218.879 29.9699 217.445 29.6556 216.117 29.0398C213.524 27.859 211.458 25.655 210.352 22.8879C209.781 21.4618 209.486 19.9272 209.486 18.3764C209.486 16.8257 209.781 15.291 210.352 13.865C210.901 12.4886 211.69 11.236 212.677 10.1738C213.669 9.12523 214.836 8.28369 216.117 7.69252C217.451 7.08384 218.886 6.77002 220.336 6.77002C221.786 6.77002 223.221 7.08384 224.555 7.69252C225.836 8.28369 227.003 9.12523 227.995 10.1738C228.988 11.2304 229.778 12.4844 230.32 13.865C230.891 15.291 231.186 16.8257 231.186 18.3764C231.186 19.9272 230.891 21.4618 230.32 22.8879C229.773 24.2594 228.984 25.5057 227.995 26.5585C227.003 27.6071 225.836 28.4487 224.555 29.0398C223.221 29.6596 221.781 29.974 220.326 29.9626ZM220.326 10.7685C219.402 10.7571 218.487 10.9747 217.655 11.4042C215.998 12.2274 214.699 13.6944 214.022 15.5055C213.654 16.4189 213.465 17.4027 213.465 18.3969C213.465 19.3912 213.654 20.375 214.022 21.2884C214.366 22.1836 214.861 23.0039 215.483 23.7081C216.1 24.411 216.837 24.9817 217.655 25.3897C218.491 25.7947 219.399 26.0043 220.317 26.0043C221.235 26.0043 222.142 25.7947 222.979 25.3897C223.796 24.9817 224.533 24.411 225.15 23.7081C225.771 22.9992 226.272 22.1804 226.63 21.2884C227.348 19.4368 227.348 17.3571 226.63 15.5055C226.281 14.6082 225.78 13.7877 225.15 13.0857C224.533 12.3891 223.795 11.8252 222.979 11.4247C222.16 10.9936 221.259 10.769 220.346 10.7685H220.326Z" fill="#FF7D7D"/>
<path id="Vector_8" opacity="0.6" d="M30.1151 0.802246V20.1399L15.2588 10.4813L30.1151 0.802246Z" fill="#FF7D7D"/>
<path id="Vector_9" opacity="0.9" d="M30.1157 0.802246V20.1399L44.972 10.4813L30.1157 0.802246Z" fill="#FF7D7D"/>
<path id="Vector_10" opacity="0.8" d="M30.1157 20.1396V39.4773L44.972 29.7982L30.1157 20.1396Z" fill="#FF7D7D"/>
<path id="Vector_11" d="M15.2582 10.481V29.7981L0.401855 20.1395L15.2582 10.481Z" fill="#FF7D7D"/>
<path id="Vector_12" d="M44.9692 10.481V29.7981L59.8256 20.1395L44.9692 10.481Z" fill="#FF7D7D"/>
</g>
</svg>
