<svg width="51" height="52" viewBox="0 0 51 52" fill="none" xmlns="http://www.w3.org/2000/svg">
<path id="Vector" d="M44.7636 0.876312H6.22465C2.90067 0.876312 0.202942 3.57404 0.202942 6.89802V45.437C0.202942 48.761 2.90067 51.4587 6.22465 51.4587H44.7636C48.0876 51.4587 50.7853 48.761 50.7853 45.437V6.89802C50.7853 3.57404 48.0876 0.876312 44.7636 0.876312ZM15.8594 20.1458V43.0283H8.63334V20.1458H15.8594ZM8.63334 13.4858C8.63334 11.7997 10.0785 10.5111 12.2464 10.5111C14.4142 10.5111 15.7751 11.7997 15.8594 13.4858C15.8594 15.1719 14.5105 16.5328 12.2464 16.5328C10.0785 16.5328 8.63334 15.1719 8.63334 13.4858ZM42.3549 43.0283H35.1289C35.1289 43.0283 35.1289 31.8761 35.1289 30.9849C35.1289 28.5762 33.9245 26.1675 30.9137 26.1193H30.8173C27.9028 26.1193 26.6985 28.6003 26.6985 30.9849C26.6985 32.0808 26.6985 43.0283 26.6985 43.0283H19.4724V20.1458H26.6985V23.2289C26.6985 23.2289 29.0229 20.1458 33.6957 20.1458C38.4769 20.1458 42.3549 23.4336 42.3549 30.0937V43.0283Z" fill="white"/>
</svg>
