<svg width="162" height="51" viewBox="0 0 162 51" fill="none" xmlns="http://www.w3.org/2000/svg">
<g id="Group 1311">
<path id="Vector" d="M48.4707 32.8909L50.2922 30.1816C51.5345 31.6404 53.5491 32.955 56.113 32.955C58.7611 32.955 59.7856 31.5549 59.7856 30.2137C59.7856 26.0402 49.0795 28.6373 49.0795 21.3324C49.0795 18.0246 51.7276 15.4917 55.7863 15.4917C58.6274 15.4917 60.9736 16.507 62.6564 18.2918L60.835 20.8835C59.3748 19.3071 57.4147 18.5911 55.4794 18.5911C53.6035 18.5911 52.3908 19.6064 52.3908 21.0652C52.3908 24.7898 63.097 22.4973 63.097 29.8823C63.097 33.1901 60.9191 36.049 55.9744 36.049C52.5839 36.049 50.1288 34.7398 48.4707 32.8909Z" fill="#FF7D7D"/>
<path id="Vector_2" d="M65.9834 26.1416C65.9834 20.5803 69.7092 16.5015 74.9929 16.5015C78.4331 16.5015 80.4582 18.025 81.685 19.7809L79.186 22.179C78.2124 20.7306 76.8687 20.0474 75.1681 20.0474C72.02 20.0474 69.8845 22.5616 69.8845 26.1416C69.8845 29.7217 72.02 32.2769 75.1681 32.2769C76.8687 32.2769 78.2059 31.5117 79.186 30.0701L81.685 32.5434C80.4582 34.2583 78.4266 35.816 74.9929 35.816C69.7092 35.816 65.9834 31.703 65.9834 26.1416Z" fill="#FF7D7D"/>
<path id="Vector_3" d="M84.1294 35.3582V16.9592H87.9266V19.6238C89.2637 17.8747 91.3668 16.5015 93.6062 16.5015V20.4641C93.2816 20.389 92.9181 20.348 92.4508 20.348C90.8216 20.348 88.686 21.4889 87.9266 22.8212V35.3514H84.1294V35.3582Z" fill="#FF7D7D"/>
<path id="Vector_4" d="M94.9224 26.1417C94.9224 20.8057 98.6157 16.5015 103.789 16.5015C109.034 16.5015 112.364 20.6896 112.364 26.4833V27.4739H98.9013C99.1934 30.2136 101.147 32.5434 104.438 32.5434C106.178 32.5434 108.164 31.8192 109.43 30.4869L111.169 33.1173C109.397 34.8663 106.827 35.8228 104.075 35.8228C98.791 35.816 94.9224 31.9695 94.9224 26.1417ZM103.75 19.7809C100.531 19.7809 99.0117 22.4113 98.8624 24.6181H108.709C108.605 22.4455 107.19 19.7809 103.75 19.7809Z" fill="#FF7D7D"/>
<path id="Vector_5" d="M120.243 35.358L113.116 16.959H117.206L122.307 30.7463L127.409 16.959H131.466L124.339 35.358H120.243Z" fill="#FF7D7D"/>
<path id="Vector_6" d="M132.218 26.1417C132.218 20.8057 135.911 16.5015 141.084 16.5015C146.329 16.5015 149.659 20.6896 149.659 26.4833V27.4739H136.197C136.489 30.2136 138.443 32.5434 141.734 32.5434C143.473 32.5434 145.459 31.8192 146.725 30.4869L148.465 33.1173C146.693 34.8663 144.122 35.8228 141.37 35.8228C136.086 35.816 132.218 31.9695 132.218 26.1417ZM141.045 19.7809C137.826 19.7809 136.307 22.4113 136.158 24.6181H146.005C145.894 22.4455 144.486 19.7809 141.045 19.7809Z" fill="#FF7D7D"/>
<path id="Vector_7" d="M152.103 35.3582V16.9592H155.9V19.6238C157.237 17.8747 159.34 16.5015 161.579 16.5015V20.4641C161.255 20.389 160.891 20.348 160.424 20.348C158.795 20.348 156.659 21.4889 155.9 22.8212V35.3514H152.103V35.3582Z" fill="#FF7D7D"/>
<path id="Vector_8" d="M10.5556 49.9893L22.7331 46.749C22.7331 46.749 27.807 45.3089 24.7626 39.1885C24.7626 39.1885 21.528 32.708 19.6253 29.6118C17.7225 26.5155 8.96999 13.5546 8.58945 8.80225C8.58945 8.80225 -1.36817 17.8749 4.34002 27.2356C10.0482 36.5963 12.4583 40.0525 12.4583 40.0525C12.4583 40.0525 16.2638 45.5249 10.5556 49.9893Z" fill="#FF7D7D"/>
<path id="Vector_9" d="M26.0943 1.89014L13.9169 5.13038C13.9169 5.13038 8.84294 6.57048 11.8873 12.6909C11.8873 12.6909 15.1219 19.1714 17.0247 22.2676C18.9274 25.3639 27.68 38.3968 28.0605 43.0772C28.0605 43.0772 38.0181 34.0045 32.3099 24.6438C26.6017 15.2831 24.1916 11.8989 24.1916 11.8989C24.1916 11.8989 20.3862 6.35447 26.0943 1.89014Z" fill="#FF7D7D"/>
<path id="Vector_10" d="M24.1908 11.8984C24.1908 11.8984 24.7617 12.7625 26.0936 14.7786C26.0936 14.7786 30.5967 11.8264 31.2944 11.1783C32.0555 10.5303 37.1294 6.78602 35.4169 2.96974C33.7045 -0.84654 26.0936 1.88966 26.0936 1.88966C20.3854 6.35399 24.1908 11.8984 24.1908 11.8984Z" fill="url(#paint0_linear_417_27)"/>
<path id="Vector_11" d="M12.4583 39.9803C12.4583 39.9803 11.8875 39.1162 10.5556 37.1001C10.5556 37.1001 6.05249 40.0523 5.35482 40.7004C4.65715 41.3484 -0.480214 45.0927 1.23224 48.909C2.9447 52.7253 10.5556 49.9891 10.5556 49.9891C16.2638 45.5247 12.4583 39.9803 12.4583 39.9803Z" fill="url(#paint1_linear_417_27)"/>
</g>
<defs>
<linearGradient id="paint0_linear_417_27" x1="35.7461" y1="7.88881" x2="22.9152" y2="7.88881" gradientUnits="userSpaceOnUse">
<stop offset="0.1472" stop-color="#F67575"/>
<stop offset="1" stop-color="#C65454"/>
</linearGradient>
<linearGradient id="paint1_linear_417_27" x1="13.6793" y1="44.049" x2="0.851696" y2="44.049" gradientUnits="userSpaceOnUse">
<stop stop-color="#C65454"/>
<stop offset="0.8528" stop-color="#F67575"/>
</linearGradient>
</defs>
</svg>
